<?xml version="1.0" standalone="no"?>
<!DOCTYPE svg PUBLIC "-//W3C//DTD SVG 1.1//EN" "http://www.w3.org/Graphics/SVG/1.1/DTD/svg11.dtd">
<!--Generator: Xara Designer (www.xara.com), SVG filter version: 6.0.0.4-->
<svg stroke-width="0.501" stroke-linejoin="bevel" fill-rule="evenodd" xmlns:xlink="http://www.w3.org/1999/xlink" xmlns="http://www.w3.org/2000/svg" version="1.1" overflow="visible" width="375pt" height="375pt" viewBox="0 0 375 375">
 <defs>
	</defs>
 <g id="Document" fill="none" stroke="black" font-family="Times New Roman" font-size="16" transform="scale(1 -1)">
  <g id="Spread" transform="translate(0 -375)">
   <g id="Layer 1">
    <path d="M 27.744,40.995 C 27.744,31.592 35.375,23.961 44.778,23.961 L 330.972,23.961 C 340.374,23.961 348.006,31.592 348.006,40.995 C 348.006,50.4 340.374,58.032 330.972,58.032 L 293.492,58.032 L 203.951,339.66 C 201.57,346.34 195.3,351.038 187.875,351.038 C 180.448,351.038 174.18,346.34 171.795,339.726 L 82.256,58.032 L 44.778,58.032 C 35.375,58.032 27.744,50.4 27.744,40.995 Z M 126.548,92.101 L 140.857,139.801 L 234.894,139.801 L 249.202,92.101 L 126.548,92.101 Z M 159.253,201.127 L 175.611,255.641 L 200.139,255.641 L 216.494,201.127 L 159.253,201.127 Z" fill="#ff8200" stroke="none" stroke-width="0.75" stroke-linejoin="miter" marker-start="none" marker-end="none" stroke-miterlimit="79.8403193612775"/>
   </g>
  </g>
 </g>
</svg>
