<?xml version="1.0" standalone="no"?>
<!DOCTYPE svg PUBLIC "-//W3C//DTD SVG 1.1//EN" "http://www.w3.org/Graphics/SVG/1.1/DTD/svg11.dtd">
<!--Generator: Xara Designer (www.xara.com), SVG filter version: 6.0.0.4-->
<svg stroke-width="0.501" stroke-linejoin="bevel" fill-rule="evenodd" xmlns:xlink="http://www.w3.org/1999/xlink" xmlns="http://www.w3.org/2000/svg" version="1.1" overflow="visible" width="58.5pt" height="58.5pt" viewBox="0 0 58.5 58.5">
 <defs>
	</defs>
 <g id="Document" fill="none" stroke="black" font-family="Times New Roman" font-size="16" transform="scale(1 -1)">
  <g id="Spread" transform="translate(0 -58.5)">
   <g id="Layer 1">
    <path d="M 29.25,58.5 C 15.579,58.5 4.5,47.42 4.5,33.75 C 4.5,23.688 10.506,15.036 19.125,11.166 L 19.125,10.125 C 19.125,4.556 23.681,0 29.25,0 C 34.818,0 39.375,4.556 39.375,10.125 L 39.375,11.166 C 47.994,15.036 54,23.688 54,33.75 C 54,47.42 42.92,58.5 29.25,58.5 Z M 30.599,13.549 C 30.152,13.52 29.703,13.5 29.25,13.5 C 28.796,13.5 28.347,13.52 27.9,13.549 L 27.9,28.155 L 30.599,28.157 L 30.599,13.549 Z M 32.849,13.827 L 32.849,34.231 L 30.599,34.231 L 30.599,30.407 L 27.9,30.405 L 27.9,34.231 L 25.65,34.231 L 25.65,13.826 C 16.197,15.53 9,23.813 9,33.75 C 9,44.916 18.084,54 29.25,54 C 40.416,54 49.5,44.916 49.5,33.75 C 49.5,23.813 42.303,15.53 32.849,13.827 Z M 21.825,40.307 C 18.475,40.307 15.75,37.581 15.75,34.231 C 15.75,30.881 18.475,28.154 21.826,28.154 L 23.436,28.156 L 23.434,30.406 L 21.825,30.404 C 19.715,30.404 17.999,32.12 17.999,34.231 C 17.999,36.341 19.715,38.057 21.825,38.057 C 23.934,38.057 25.65,36.341 25.65,34.231 L 27.9,34.231 C 27.9,37.581 25.175,40.307 21.825,40.307 Z M 36.674,40.307 C 33.324,40.307 30.598,37.581 30.598,34.231 L 32.848,34.231 C 32.848,36.341 34.564,38.057 36.674,38.057 C 38.783,38.057 40.5,36.341 40.5,34.232 C 40.5,32.196 38.909,30.518 36.88,30.411 C 36.833,30.409 36.786,30.407 36.738,30.406 L 36.666,30.405 L 36.666,30.382 C 36.283,30.409 35.799,30.407 35.192,30.405 L 35.198,28.155 C 35.589,28.156 36.374,28.158 36.675,28.158 L 36.675,28.155 C 36.782,28.155 36.888,28.159 36.996,28.164 C 40.222,28.332 42.75,30.998 42.75,34.232 C 42.75,37.581 40.024,40.307 36.674,40.307 Z" fill="#ffffff" stroke="none" stroke-width="0.75" fill-rule="evenodd" stroke-linejoin="miter" marker-start="none" marker-end="none" stroke-miterlimit="79.8403193612775"/>
   </g>
  </g>
 </g>
</svg>
